<svg xmlns="http://www.w3.org/2000/svg" viewBox="0 0 40 40" width="47px" height="47px"><path fill="#dff0fe" d="M9.981,21.5C8.023,21.5,5.5,18.977,5.5,17c0-2.061,9.437-15.244,11.096-15.5 c0.907,0,1.464,0.284,2.001,0.559C19.043,2.285,19.464,2.5,20,2.5h0.01c0.531-0.003,0.949-0.216,1.392-0.442 C21.939,1.784,22.496,1.5,23.417,1.5C25.063,1.756,34.5,14.939,34.5,17c0,1.974-2.516,4.493-4.491,4.5l-9.99-0.373L9.981,21.5z"/><path fill="#4788c7" d="M19.99,1L20,2v1c0.003,0,0.007,0,0.01,0v0c0.652-0.003,1.165-0.265,1.619-0.496 c0.486-0.248,0.947-0.483,1.689-0.502C25.218,2.903,33.882,15.05,34,17c0,1.72-2.28,4-3.963,4.001l-10-0.374L20,20.626 l-0.037,0.001L10,21c-1.72,0-4-2.28-4-3.993C6.118,15.05,14.782,2.903,16.682,2.001c0.741,0.019,1.202,0.254,1.688,0.502 C18.826,2.736,19.343,3,20,3L19.99,1 M23.417,1C21.609,1,20.981,2,20,2c0.007,0,0.01,0,0.01,0S20.005,2,20,2 c-0.007,0-0.01,0-0.01,0S19.995,2,20,2c-0.981,0-1.61-1-3.417-1S5,14.734,5,17s2.728,5,5,5l10-0.374L30,22c2.272,0,5-2.734,5-5 S25.224,1,23.417,1L23.417,1z"/><path fill="#98ccfd" d="M10.5 18.5H29.5V38.5H10.5z"/><path fill="#4788c7" d="M29,19v19H11V19H29 M30,18H10v21h20V18L30,18z"/><path fill="#dff0fe" d="M18.478,38.5c-3.363-1.89-8.838-6.968-8.975-20h20.994c-0.137,13.027-5.618,18.107-8.986,20H18.478z"/><path fill="#4788c7" d="M29.989,19c-0.264,12.258-5.376,17.137-8.61,19h-1.39h-1.379c-5.362-3.077-8.395-9.791-8.598-19 H29.989 M31,18H9c0,11.359,4.081,18.109,9.348,21h1.641H20h1.641C26.907,36.109,31,29.359,31,18L31,18z"/><path fill="#fff" d="M15,23.5c-1.963,0-3.5-1.098-3.5-2.5s1.537-2.5,3.5-2.5s3.5,1.098,3.5,2.5S16.963,23.5,15,23.5z"/><path fill="#4788c7" d="M15 19c1.657 0 3 .895 3 2s-1.343 2-3 2-3-.895-3-2S13.343 19 15 19M15 18c-2.243 0-4 1.318-4 3s1.757 3 4 3 4-1.318 4-3S17.243 18 15 18L15 18zM29 21c0 0-3.048 3-5 3s-3-1.416-3-3 1.048-2.429 3-2.429c1.159 0 3.144-.017 4.208.679C28.937 19.726 29 21 29 21z"/><path fill="#4788c7" d="M15 20A1 1 0 1 0 15 22 1 1 0 1 0 15 20zM21.207 32.5L18.793 32.5 17.137 34.156 15.809 31.5 24.191 31.5 22.863 34.156z"/><path fill="#4788c7" d="M23.382 32l-.656 1.312-1.019-1.019L21.414 32H23.382M18.586 32l-.293.293-1.019 1.019L16.618 32H18.586M25 31H15l2 4 2-2h2l2 2L25 31 25 31zM24.07 36.713L21.584 35 18.416 35 15.929 36.713 16.625 37.438 18.869 36 21.131 36 23.281 37.406z"/><path fill="#4788c7" d="M27 31L21.357 27 18.643 27 13 31 12 30 12 31.313 13.031 32.344 19 28 21 28 27 32.313 28 31.313 28 30z"/><path fill="#4788c7" d="M27 28L21.357 24 18.643 24 13 28 12 27 12 28.313 13.031 29.344 19 25 21 25 27 29.313 28 28.313 28 27z"/><path fill="#98ccfd" d="M10.052,16.5c1.339-2.623,5.254-8.617,7.334-10.817C18.11,6.042,19.192,6.5,20,6.5 c0.809,0,1.893-0.438,2.615-0.779c2.044,2.159,6.019,8.157,7.305,10.779H10.052z"/><path fill="#4788c7" d="M17.504,6.295C18.302,6.664,19.237,7,20,7c0.78,0,1.756-0.349,2.493-0.674 c1.895,2.115,5.14,6.965,6.607,9.674H10.888C12.396,13.293,15.615,8.418,17.504,6.295 M17.286,5.071 C15.092,7.211,10.176,14.788,9.265,17h21.423c-0.843-2.25-5.774-9.747-7.968-11.886C22.68,5.131,21.018,6,20,6 S17.325,5.089,17.286,5.071L17.286,5.071z"/><path fill="#98ccfd" d="M20,20.5c-5.683,0-9.5-1.292-9.5-2.5v-1.5h19V18C29.5,19.208,25.683,20.5,20,20.5z"/><path fill="#4788c7" d="M29,17v1c0,0.598-3.062,2-9,2s-9-1.402-9-2v-1H29 M30,16H10c0,0,0,0.126,0,2s4.753,3,10,3 s10-1.126,10-3S30,16,30,16L30,16z"/><g><path fill="#b6dcfe" d="M28.5,38.5V13.999c0.509,0.858,1.333,2.278,1.785,3.218c0.01,0.022,1.03,2.142,1.224,3.148L31.5,24 c0,4.47,2.159,12.206,2.83,14.5H28.5z"/><path fill="#4788c7" d="M29,15.861c0.314,0.559,0.618,1.123,0.835,1.574c0.371,0.769,0.998,2.211,1.165,2.94V24 c0,4.178,1.847,11.127,2.665,14H29V15.861 M28.484,13H28v26h7c0,0-3-9.837-3-15v-3.729C31.792,19.188,30.735,17,30.735,17 C30.034,15.541,28.484,13,28.484,13L28.484,13z"/><g><path fill="#b6dcfe" d="M5.67,38.5C6.341,36.206,8.5,28.47,8.5,24v-3.8c0.184-0.938,1.202-2.954,1.213-2.974l1.787-3.188 V38.5H5.67z"/><path fill="#4788c7" d="M11,15.953V38H6.335C7.153,35.127,9,28.178,9,24v-3.699c0.182-0.818,0.891-2.32,1.139-2.812 L11,15.953 M12,13h-0.491l-2.242,4c0,0-1.058,2.088-1.267,3.2V24c0,5.163-3,15-3,15h7V13L12,13z"/></g></g><g><path fill="#dff0fe" d="M11.509,13c-1.024,1.638-0.259,3.656,0.491,4h16c0.844-1.188,1.511-2.364,0.484-4H11.509z"/></g><g><path fill="#4788c7" d="M20 14A1 1 0 1 0 20 16A1 1 0 1 0 20 14Z"/></g><path fill="#4788c7" d="M17.504,6.295C18.302,6.664,19.237,7,20,7c0.78,0,1.756-0.349,2.493-0.674 C24.656,8.739,28.572,14.71,29.602,17h1.085c-0.843-2.25-5.774-9.747-7.968-11.886C22.68,5.131,21.018,6,20,6 s-2.675-0.911-2.714-0.929C15.092,7.211,10.176,14.788,9.265,17h1.098C11.462,14.723,15.348,8.718,17.504,6.295z"/><path fill="#4788c7" d="M11 14H12V18H11zM28 14H29V18H28z"/></svg>